# xmcd
#
# Track frame offsets: 
#        150
#        19390
#        38868
#        59400
#        76205
#        93228
#        108922
#        127834
#        145394
#        162736
#        182665
#        201741
#        217141
#        231109
#
# Disc length: 3394 seconds
#
# Revision: 0
# Processed by: cddbd v1.5.2PL0 Copyright (c) Steve Scherf et al.
# Submitted via: ExactAudioCopy v0.95b4
#
DISCID=cd0d400e
DTITLE=Various Artist - Любовное Настроение. Сезон Любви. Весна
DYEAR=2006
DGENRE=Pop
TTITLE0=Джигурда Никита/Любить По-Русски (Из Одноименного КФ)
TTITLE1=Маршал Александр/Снегопад
TTITLE2=Унесенные Ветром/Капучино
TTITLE3=Николаев Игорь/Приходила Боль
TTITLE4=Жуков Рома/Синий Иней
TTITLE5=Белорусские Песняры/Где, Ты Любовь
TTITLE6=Башаков Михаил/Птица, Перелетная
TTITLE7=МГК/Раненая Птица
TTITLE8=Кашин Павел/Московская Одиссея
TTITLE9=Тальков Игорь/Прощай
TTITLE10=Черникова Лариса/Одинокая Птица 
TTITLE11=140 Ударов В Минуту/Я Скучаю По Тебе
TTITLE12=Скрипка Олег/Ой, Та Й Хто Горя Не Знает
TTITLE13=Мирзабеков Михаил/Сюзан
EXTD=
EXTT0=
EXTT1=
EXTT2=
EXTT3=
EXTT4=
EXTT5=
EXTT6=
EXTT7=
EXTT8=
EXTT9=
EXTT10=
EXTT11=
EXTT12=
EXTT13=
PLAYORDER=
